#!OML:ASF I:\Actors\actors\Patient Classification 2\Patient 1\Session 1\actor1.ASF
:FULLY-SPECIFIED
:DEGREES
615
root 0.0323468 18.7957 5.36085 24.2063 11.1625 -6.68568
lowerback 25.0385 2.34759 1.6797
upperback 5.9821 3.63283 2.05822
thorax -7.31233 1.71827 0.186514
lowerneck -10.1685 -5.99765 -5.49092
upperneck -3.45923 -7.5913 17.0048
head 1.5957 -3.48952 5.68526
rclavicle -3.57812e-014 4.96962e-015
rhumerus -28.5747 10.8147 -69.9922
rradius 80.5178
rwrist 4.20906
rhand -13.1746 -46.6698
rfingers 7.12502
rthumb 12.9249 -76.2495
lclavicle -3.57812e-014 4.96962e-015
lhumerus 50.0096 -36.6083 61.4054
lradius 56.5485
lwrist -3.93446
lhand -4.34425 -10.7874
lfingers 7.12502
lthumb 21.4234 18.0482
rfemur -18.9188 -9.80007 23.2465
rtibia -1.19271e-014
rfoot -14.6832 -14.1242
rtoes -1.04889
lfemur -43.4949 -2.18169 -7.58867
ltibia 35.0993
lfoot -16.1 4.89794
ltoes -55.1621
616
root 0.0327618 18.803 5.36992 24.1647 11.035 -6.64331
lowerback 24.9883 2.25216 1.47457
upperback 5.98443 3.45684 2.03515
thorax -7.29545 1.63808 0.333388
lowerneck -10.2409 -5.66547 -4.925
upperneck -3.13228 -7.23174 16.5965
head 1.61914 -3.30356 5.48368
rclavicle 4.63168e-014 1.02374e-014
rhumerus -28.6459 11.3539 -70.4007
rradius 80.8423
rwrist 3.91455
rhand -13.6107 -46.4794
rfingers 7.12502
rthumb 12.5044 -76.0852
lclavicle 4.63168e-014 1.02374e-014
lhumerus 49.3608 -36.3744 62.2653
lradius 55.6558
lwrist -4.66014
lhand -4.10272 -11.3857
lfingers 7.12502
lthumb 21.6553 17.4232
rfemur -18.8378 -9.7004 23.1428
rtibia 5.56597e-015
rfoot -14.6862 -14.1646
rtoes -1.132
lfemur -43.2607 -2.23532 -7.62965
ltibia 34.8958
lfoot -16.1281 5.03032
ltoes -55.2157
617
root 0.0307001 18.8102 5.37915 24.1534 10.8729 -6.51384
lowerback 24.9742 2.17431 1.18232
upperback 5.97712 3.28269 2.00899
thorax -7.31098 1.55952 0.524551
lowerneck -10.4308 -5.36836 -4.57178
upperneck -2.75767 -6.90656 16.3767
head 1.70067 -3.12206 5.37049
rclavicle -2.01766e-014 -8.34896e-015
rhumerus -28.6558 11.8412 -70.7219
rradius 81.146
rwrist 3.96426
rhand -13.5351 -46.5641
rfingers 7.12502
rthumb 12.5773 -76.1655
lclavicle -2.01766e-014 -8.34896e-015
lhumerus 48.6856 -36.0939 63.1975
lradius 54.8065
lwrist -5.54515
lhand -4.66404 -12.2604
lfingers 7.12502
lthumb 21.1162 16.6097
rfemur -18.7689 -9.60339 22.9486
rtibia 2.38542e-015
rfoot -14.7657 -14.1817
rtoes -0.568981
lfemur -43.0192 -2.30487 -7.75103
ltibia 34.6541
lfoot -16.1486 5.11632
ltoes -55.1074
618
root 0.0285579 18.8166 5.38689 24.1805 10.644 -6.40146
lowerback 24.9199 2.13258 0.904173
upperback 5.97993 3.15612 1.97545
thorax -7.29249 1.50351 0.68685
lowerneck -10.679 -5.09885 -4.22412
upperneck -2.45629 -6.60871 16.0846
head 1.77178 -2.95654 5.23436
rclavicle 3.39922e-014 3.18055e-015
rhumerus -28.616 12.2328 -70.996
rradius 81.4395
rwrist 4.05873
rhand -13.3895 -46.7695
rfingers 7.12502
rthumb 12.7177 -76.3622
lclavicle 3.39922e-014 3.18055e-015
lhumerus 47.9741 -35.7732 64.2516
lradius 53.9767
lwrist -6.63966
lhand -5.25824 -13.2836
lfingers 7.12502
lthumb 20.5453 15.6492
rfemur -18.7707 -9.43528 22.7557
rtibia 4.69132e-014
rfoot -14.7728 -14.2664
rtoes -0.568839
lfemur -42.8277 -2.28183 -7.89549
ltibia 34.4347
lfoot -16.1461 5.19961
ltoes -55.0895
619
root 0.0268107 18.8263 5.40704 23.8581 10.7829 -6.16574
lowerback 25.2392 1.9274 0.747739
upperback 6.03829 2.86262 1.99501
thorax -7.39473 1.36605 0.879118
lowerneck -10.7247 -4.80437 -3.82997
upperneck -2.29938 -6.26221 15.6418
head 1.75619 -2.78588 5.05255
rclavicle 3.97569e-015 -8.84592e-015
rhumerus -28.634 12.8594 -71.3063
rradius 81.7235
rwrist 3.49723
rhand -14.157 -46.799
rfingers 7.12502
rthumb 11.9777 -76.4363
lclavicle 3.97569e-015 -8.84592e-015
lhumerus 47.1066 -35.3831 65.448
lradius 53.2297
lwrist -7.73036
lhand -5.73553 -14.3633
lfingers 7.12502
lthumb 20.0866 14.6184
rfemur -18.2591 -9.66693 22.5301
rtibia -1.98785e-014
rfoot -14.9371 -14.1991
rtoes -0.455663
lfemur -42.2646 -2.53344 -8.10035
ltibia 34.19
lfoot -16.1436 5.15024
ltoes -55.1539
620
root 0.0282604 18.8302 5.40919 24.1551 10.552 -6.01743
lowerback 24.8558 1.84224 0.49769
upperback 5.93745 2.68375 1.94543
thorax -7.3183 1.28584 1.03094
lowerneck -10.7286 -4.49205 -3.49205
upperneck -2.07349 -5.89603 15.2988
head 1.76171 -2.60153 4.91185
rclavicle 1.02871e-014 -1.06598e-014
rhumerus -28.6771 13.5894 -71.6146
rradius 81.9829
rwrist 3.14613
rhand -14.7331 -46.8159
rfingers 7.12502
rthumb 11.4222 -76.4848
lclavicle 1.02871e-014 -1.06598e-014
lhumerus 46.2122 -34.9494 66.6042
lradius 52.5181
lwrist -8.63047
lhand -6.60827 -14.7386
lfingers 7.12502
lthumb 19.2475 14.3289
rfemur -18.5952 -9.50819 22.3343
rtibia 3.73715e-014
rfoot -14.8907 -14.2962
rtoes -0.444034
lfemur -42.392 -2.51744 -8.26665
ltibia 33.9622
lfoot -16.1046 5.34452
ltoes -55.0866
